<mxfile host="app.diagrams.net" modified="2024-07-09T17:59:42.297Z" agent="Mozilla/5.0 (Macintosh; Intel Mac OS X 10_15_7) AppleWebKit/537.36 (KHTML, like Gecko) Chrome/125.0.0.0 Safari/537.36" version="24.6.4" etag="lnEK4EcFtdOL0s__wosK" type="github">
  <diagram name="Page-1" id="pNgLGh8jAGTmmhqUtHat">
    <mxGraphModel>
      <root>
        <mxCell id="0" />
        <mxCell id="1" parent="0" />
      </root>
    </mxGraphModel>
  </diagram>
</mxfile>
